<?xml version="1.0" encoding="UTF-8" standalone="no"?>
<!DOCTYPE svg PUBLIC "-//W3C//DTD SVG 1.1//EN" "http://www.w3.org/Graphics/SVG/1.1/DTD/svg11.dtd">
<svg width="100%" height="100%" viewBox="0 0 235 235" version="1.1" xmlns="http://www.w3.org/2000/svg" xmlns:xlink="http://www.w3.org/1999/xlink" xml:space="preserve" xmlns:serif="http://www.serif.com/" style="fill-rule:evenodd;clip-rule:evenodd;stroke-linecap:round;stroke-linejoin:round;stroke-miterlimit:1.5;">
    <g transform="matrix(1,0,0,1,-1654.5,-94.3333)">
        <g transform="matrix(1,0,0,1,0,-350)">
            <g id="next-race" serif:id="next race" transform="matrix(1,0,0,1,1450,0)">
                <g transform="matrix(1,0,0,1,-660,-494)">
                    <rect x="864.5" y="938.333" width="235" height="235" style="fill:url(#_Linear1);"/>
                </g>
                <g id="Flag" transform="matrix(0.96572,0.259585,-0.259585,0.96572,165.29,-96.6865)">
                    <g transform="matrix(1,0,0,1,-580,0)">
                        <path d="M841,538C841,538 854.197,532.076 867,533C890.274,534.68 914.667,544.788 938,545C956.333,545.167 977,534 977,534" style="fill:none;stroke:white;stroke-width:7px;"/>
                    </g>
                    <g transform="matrix(1,0,0,1,-580,70)">
                        <path d="M841,538C841,538 854.197,532.076 867,533C890.274,534.68 914.667,544.788 938,545C956.333,545.167 977,534 977,534" style="fill:none;stroke:white;stroke-width:7px;"/>
                    </g>
                    <g transform="matrix(1,0,0,1,-580,0)">
                        <path d="M938,591.667C932.051,591.613 926.032,590.915 920,589.851L920,566.517C926.032,567.582 932.051,568.279 938,568.333L938,591.667Z" style="fill:white;"/>
                    </g>
                    <g transform="matrix(1,0,0,1,-580,0)">
                        <path d="M956,565.568C967.682,562.368 977,557.333 977,557.333L977,580.667C977,580.667 967.682,585.701 956,588.901L956,565.568Z" style="fill:white;"/>
                    </g>
                    <g transform="matrix(1,0,0,1,-580,0)">
                        <path d="M902,586.087C895.996,584.719 889.981,583.287 884,582.109L884,558.776C889.981,559.953 895.996,561.386 902,562.754L902,586.087Z" style="fill:white;"/>
                    </g>
                    <g transform="matrix(1,0,0,1,-580,0)">
                        <path d="M866,556.323L866,579.656C853.51,579.051 841,584.667 841,584.667L841,561.333C841,561.333 853.51,555.718 866,556.323Z" style="fill:white;"/>
                    </g>
                    <g transform="matrix(1.05882,0,0,0.917431,-625.647,43.4312)">
                        <path d="M861,609.919L861,584.485L861.944,584.497C861.944,584.497 866.007,584.935 866.007,584.935L867.853,585.213L870.018,585.542L878,587.159L878,612.592C872.626,611.351 867.254,610.372 861.944,609.93L861,609.919Z" style="fill:white;"/>
                    </g>
                    <g transform="matrix(1.05882,0,0,0.917431,-625.647,43.4312)">
                        <path d="M861,533.619L861.944,533.63C867.248,534.072 872.613,535.048 878,536.286L878,561.725C878,561.725 870.233,560.141 870.233,560.141L870.018,560.109L869.948,560.095L867.853,559.779L866.078,559.509L866.007,559.502C864.626,559.32 863.283,559.175 861.944,559.063L861,559.052L861,533.619Z" style="fill:white;"/>
                    </g>
                    <g transform="matrix(1.05882,0,0,0.917431,-589.647,43.4312)">
                        <path d="M865.576,592.727L868.478,593.443L869.507,593.711L870.089,593.84L872.985,594.554L877.454,595.476L878,595.597L878,621.031C872.347,619.93 866.668,618.461 861,616.928L861,591.513L865.576,592.727Z" style="fill:white;"/>
                    </g>
                    <g transform="matrix(1.05882,0,0,0.917431,-589.647,43.4312)">
                        <path d="M861,540.649C866.68,542.171 872.365,543.651 878,544.756L878,570.164C872.347,569.063 866.668,567.595 861,566.062L861,540.649Z" style="fill:white;"/>
                    </g>
                    <g transform="matrix(1.05882,0,0,0.917431,-553.647,43.4312)">
                        <path d="M878,619.996C872.639,621.788 866.741,623.058 861,623.01L861,597.577L864.267,597.472L865.006,597.391L865.305,597.378L865.849,597.3L867.554,597.114L869.366,596.795L869.621,596.758L869.785,596.721C872.593,596.2 875.363,595.464 878,594.562C878,594.562 878,619.996 878,619.996Z" style="fill:white;"/>
                    </g>
                    <g transform="matrix(1.05882,0,0,0.917431,-553.647,43.4312)">
                        <path d="M878,543.696L878,569.129C875.403,569.997 872.68,570.743 869.906,571.267L869.231,571.385L865.951,571.855L864.985,571.96L861,572.143L861,546.71C866.699,546.758 872.624,545.484 878,543.696Z" style="fill:white;"/>
                    </g>
                    <g transform="matrix(1,0,0,1,-580,0)">
                        <path d="M977,534L977,604" style="fill:none;stroke:white;stroke-width:7px;"/>
                    </g>
                    <g transform="matrix(1,-5.55112e-17,0,1.09471,-580,-49.9122)">
                        <path d="M841,691L841,527" style="fill:none;stroke:white;stroke-width:9.54px;"/>
                    </g>
                    <g transform="matrix(1.64286,0,0,1.64286,-1169.93,-335.786)">
                        <circle cx="871" cy="520" r="7" style="fill:white;"/>
                    </g>
                </g>
                <g id="previous" transform="matrix(1,0,0,1,-13,120)">
                    <g transform="matrix(6.12323e-17,1,-1,6.12323e-17,829,195.833)">
                        <path d="M317.493,487.013C318.347,485.306 320.092,484.228 322,484.228C323.908,484.228 325.653,485.306 326.507,487.013C332.263,498.526 342.111,518.223 347.396,528.793C348.168,530.336 348.086,532.17 347.178,533.638C346.271,535.106 344.668,536 342.942,536C331.892,536 312.151,536 301.087,536C299.354,536 297.746,535.103 296.835,533.63C295.925,532.156 295.842,530.316 296.616,528.767C301.905,518.191 311.741,498.517 317.493,487.013Z" style="fill:white;"/>
                    </g>
                    <g transform="matrix(6.12323e-17,1,-1,6.12323e-17,869,195.833)">
                        <path d="M317.493,487.013C318.347,485.306 320.092,484.228 322,484.228C323.908,484.228 325.653,485.306 326.507,487.013C332.263,498.526 342.111,518.223 347.396,528.793C348.168,530.336 348.086,532.17 347.178,533.638C346.271,535.106 344.668,536 342.942,536C331.892,536 312.151,536 301.087,536C299.354,536 297.746,535.103 296.835,533.63C295.925,532.156 295.842,530.316 296.616,528.767C301.905,518.191 311.741,498.517 317.493,487.013Z" style="fill:white;"/>
                    </g>
                </g>
            </g>
        </g>
    </g>
    <defs>
        <linearGradient id="_Linear1" x1="0" y1="0" x2="1" y2="0" gradientUnits="userSpaceOnUse" gradientTransform="matrix(1.43896e-14,-235,235,1.43896e-14,982,1173.33)"><stop offset="0" style="stop-color:rgb(13,0,106);stop-opacity:1"/><stop offset="1" style="stop-color:rgb(23,0,197);stop-opacity:1"/></linearGradient>
    </defs>
</svg>
