<?xml version="1.0" encoding="UTF-8" standalone="no"?>
<!DOCTYPE svg PUBLIC "-//W3C//DTD SVG 1.1//EN" "http://www.w3.org/Graphics/SVG/1.1/DTD/svg11.dtd">
<svg width="100%" height="100%" viewBox="0 0 235 235" version="1.1" xmlns="http://www.w3.org/2000/svg" xmlns:xlink="http://www.w3.org/1999/xlink" xml:space="preserve" xmlns:serif="http://www.serif.com/" style="fill-rule:evenodd;clip-rule:evenodd;stroke-linecap:round;stroke-linejoin:round;stroke-miterlimit:1.5;">
    <g transform="matrix(1,0,0,1,-1074.5,-674.333)">
        <g transform="matrix(1,0,0,1,0,230)">
            <g id="pause" transform="matrix(1,0,0,1,870,0)">
                <g transform="matrix(1,0,0,1,-660,-494)">
                    <rect x="864.5" y="938.333" width="235" height="235" style="fill:url(#_Linear1);"/>
                </g>
                <g id="pause1" serif:id="pause" transform="matrix(1,0,0,1,-52.3329,0)">
                    <g transform="matrix(-0.909091,1.11332e-16,-9.44728e-17,-0.771429,1177.33,1290.46)">
                        <rect x="891" y="811" width="22" height="70" style="fill:white;"/>
                    </g>
                    <g transform="matrix(-0.909091,1.11332e-16,-9.44728e-17,-0.771429,1211.33,1290.46)">
                        <rect x="891" y="811" width="22" height="70" style="fill:white;"/>
                    </g>
                </g>
                <g>
                    <g transform="matrix(1,0,0,1,3.49999,-590)">
                        <circle cx="318.5" cy="1119.5" r="56.5" style="fill:none;stroke:white;stroke-width:10px;"/>
                    </g>
                    <g transform="matrix(1,0,0,1,0,-580)">
                        <path d="M322,1079L322,1109.5L352.5,1109.5" style="fill:none;stroke:white;stroke-width:10px;"/>
                    </g>
                </g>
            </g>
        </g>
    </g>
    <defs>
        <linearGradient id="_Linear1" x1="0" y1="0" x2="1" y2="0" gradientUnits="userSpaceOnUse" gradientTransform="matrix(1.43896e-14,-235,235,1.43896e-14,982,1173.33)"><stop offset="0" style="stop-color:rgb(59,0,114);stop-opacity:1"/><stop offset="1" style="stop-color:rgb(107,0,206);stop-opacity:1"/></linearGradient>
    </defs>
</svg>
