<?xml version="1.0" encoding="UTF-8" standalone="no"?>
<!DOCTYPE svg PUBLIC "-//W3C//DTD SVG 1.1//EN" "http://www.w3.org/Graphics/SVG/1.1/DTD/svg11.dtd">
<svg width="100%" height="100%" viewBox="0 0 235 235" version="1.1" xmlns="http://www.w3.org/2000/svg" xmlns:xlink="http://www.w3.org/1999/xlink" xml:space="preserve" xmlns:serif="http://www.serif.com/" style="fill-rule:evenodd;clip-rule:evenodd;stroke-linecap:round;stroke-linejoin:round;stroke-miterlimit:1.5;">
    <g transform="matrix(1,0,0,1,-1644.5,-674.333)">
        <g transform="matrix(1,0,0,1,0,230)">
            <g id="super-fast-forward" serif:id="super fast forward" transform="matrix(1,0,0,1,1440,0)">
                <g transform="matrix(1,0,0,1,-660,-494)">
                    <rect x="864.5" y="938.333" width="235" height="235" style="fill:url(#_Linear1);"/>
                </g>
                <g transform="matrix(1,0,0,1,65.4089,-614)">
                    <text x="236.567px" y="1182.79px" style="font-family:'Arial-Black', 'Arial', sans-serif;font-weight:900;font-size:30px;fill:white;">60</text>
                </g>
                <g>
                    <g transform="matrix(1,0,0,1,3.49999,-590)">
                        <circle cx="318.5" cy="1119.5" r="56.5" style="fill:none;stroke:white;stroke-width:10px;"/>
                    </g>
                    <g transform="matrix(1,0,0,1,0,-580)">
                        <path d="M322,1079L322,1109.5L352.5,1109.5" style="fill:none;stroke:white;stroke-width:10px;"/>
                    </g>
                </g>
                <g id="previous" transform="matrix(1,0,0,1,-19,120)">
                    <g transform="matrix(6.12323e-17,1,-1,6.12323e-17,829,195.833)">
                        <path d="M317.493,487.013C318.347,485.306 320.092,484.228 322,484.228C323.908,484.228 325.653,485.306 326.507,487.013C332.263,498.526 342.111,518.223 347.396,528.793C348.168,530.336 348.086,532.17 347.178,533.638C346.271,535.106 344.668,536 342.942,536C331.892,536 312.151,536 301.087,536C299.354,536 297.746,535.103 296.835,533.63C295.925,532.156 295.842,530.316 296.616,528.767C301.905,518.191 311.741,498.517 317.493,487.013Z" style="fill:white;"/>
                    </g>
                    <g transform="matrix(6.12323e-17,1,-1,6.12323e-17,869,195.833)">
                        <path d="M317.493,487.013C318.347,485.306 320.092,484.228 322,484.228C323.908,484.228 325.653,485.306 326.507,487.013C332.263,498.526 342.111,518.223 347.396,528.793C348.168,530.336 348.086,532.17 347.178,533.638C346.271,535.106 344.668,536 342.942,536C331.892,536 312.151,536 301.087,536C299.354,536 297.746,535.103 296.835,533.63C295.925,532.156 295.842,530.316 296.616,528.767C301.905,518.191 311.741,498.517 317.493,487.013Z" style="fill:white;"/>
                    </g>
                    <g transform="matrix(0.358675,0,0,1,-170.153,-694.667)">
                        <rect x="1536" y="1190" width="9" height="45" style="fill:white;"/>
                    </g>
                </g>
            </g>
        </g>
    </g>
    <defs>
        <linearGradient id="_Linear1" x1="0" y1="0" x2="1" y2="0" gradientUnits="userSpaceOnUse" gradientTransform="matrix(1.43896e-14,-235,235,1.43896e-14,982,1173.33)"><stop offset="0" style="stop-color:rgb(59,0,114);stop-opacity:1"/><stop offset="1" style="stop-color:rgb(107,0,206);stop-opacity:1"/></linearGradient>
    </defs>
</svg>
